<svg width="135" height="90" viewBox="0 0 135 90" fill="none" xmlns="http://www.w3.org/2000/svg">
<path d="M18.9999 50.9999C13.7437 56.2561 37.0368 69.8351 44.2221 61.6666C48.4272 56.8861 41.6991 50.4443 36.9999 50.4443C32.6076 50.4443 31.1967 53.2539 28.9999 55.9999" stroke="white" stroke-width="30" stroke-linecap="round"/>
<path d="M63.9999 51.0001C57.7297 52.8443 69.376 64.4938 76.8333 60.1668C81.0408 57.7254 83.8878 50.7694 79.7777 46.7779C73.3019 40.4888 68.0685 51.9315 64.9999 55.0001" stroke="white" stroke-width="30" stroke-linecap="round"/>
<path d="M100 47.9999C99.834 47.7344 98.0605 45.1095 97.4444 46.4443C95.8833 49.8268 101.657 56.1087 104 57.3332C111.129 61.0587 118.949 53.3752 115.222 46.111C110.98 37.8413 104.803 44.1987 100 45.9999" stroke="white" stroke-width="30" stroke-linecap="round"/>
<path d="M66.0001 24C60.8758 24.488 51.7464 35.2621 58.7779 38.7778C62.3504 40.5641 66.8617 36.5202 67.2223 33.1111C67.449 30.9675 65.5498 29.6856 63.6667 30.7778C59.156 33.394 61.6077 35.192 58.0001 39" stroke="white" stroke-width="30" stroke-linecap="round"/>
<path d="M86 26C85.8733 24.2265 84.1 31.0589 90.1111 29.2778C92.4984 28.5705 96.8058 25.4752 94.5556 22.3334C90.4843 16.649 83.8366 25.2734 81 27" stroke="white" stroke-width="30" stroke-linecap="round"/>
<path d="M39 44.0002C39.2544 41.7108 45.3627 37.6059 44.7222 36.1113C43.8951 34.1814 37.518 41.4463 37 43.0002" stroke="white" stroke-opacity="0.27" stroke-width="30" stroke-linecap="round"/>
<path d="M35 40C28.9882 42.8181 22.7116 45.972 18.7778 51.5556C15.3337 56.4439 20.5984 56.6539 23.0556 59.1111C28.529 64.5845 36.7925 60 44 60" stroke="white" stroke-opacity="0.27" stroke-width="30" stroke-linecap="round"/>
<path d="M46 66.0001C50.0347 67.1174 52.7299 67.317 56.7778 66.1112C60.7034 64.9419 57.3178 68.0369 56.8333 70.6668C55.8645 75.9259 57.5962 75.0376 61.4444 71.889C66.7123 67.579 70.4299 68.3198 76.3889 66.3335C80.38 65.0031 91.9616 58.5863 95.5556 61.6668C96.508 62.4832 98.0994 64.6665 98.7778 63.6112C103.686 55.9768 113.976 52.1029 115.111 41.889C115.382 39.4527 112.927 41.6076 115.056 41.0557C115.277 40.9982 121.469 38.2414 118.389 40.7779C116.65 42.2097 116.528 40.0267 115.889 38.889C114.274 36.0125 112.621 37.0001 110 37.0001" stroke="white" stroke-opacity="0.27" stroke-width="30" stroke-linecap="round"/>
<path d="M23 63C19.6294 66.2502 21.5741 65.7918 23 69" stroke="white" stroke-opacity="0.27" stroke-width="30" stroke-linecap="round"/>
<path d="M19 60H15" stroke="white" stroke-opacity="0.27" stroke-width="30" stroke-linecap="round"/>
<path d="M28 42C32.0387 39.7217 35.3538 36.8359 39 34" stroke="white" stroke-opacity="0.27" stroke-width="30" stroke-linecap="round"/>
<path d="M90 31C95.408 31 100.633 31.435 106 32" stroke="white" stroke-opacity="0.27" stroke-width="30" stroke-linecap="round"/>
<path d="M105 22C96.3263 16.44 89.0293 15 79 15" stroke="white" stroke-opacity="0.27" stroke-width="30" stroke-linecap="round"/>
</svg>
