<svg width="145" height="67" viewBox="0 0 145 67" fill="none" xmlns="http://www.w3.org/2000/svg">
<path d="M26.2275 36.0113C26.3667 35.1763 26.8108 36.0421 27.3387 36.5113C31.6186 40.3157 37.3876 42.6718 41.9498 37.5113C44.9755 34.0887 46.4958 27.7756 42.672 24.2335C37.7318 19.6573 36.4566 24.7823 34.2275 27.0113" stroke="white" stroke-width="30" stroke-linecap="round"/>
<path d="M62.2276 26.0112C57.9694 28.5918 57.3204 34.0385 60.1165 38.3445C66.1189 47.5883 77.307 40.6987 81.2276 33.4556C83.0766 30.0397 84.9111 17.8351 77.2276 19.0112C72.7222 19.7008 72.5624 23.8965 71.2276 27.0112" stroke="white" stroke-width="30" stroke-linecap="round"/>
<path d="M96.2276 23.0114C94.3327 28.3515 95.0703 36.5495 102.45 37.6781C106.863 38.353 121.055 26.3192 117.228 22.067C116.023 20.728 114.818 27.707 115.116 28.6781C115.85 31.0625 112.092 24.6688 110.228 23.0114" stroke="white" stroke-width="30" stroke-linecap="round"/>
<path d="M28.2276 19.0112C27.3104 20.387 25.5222 20.0739 24.8387 21.289C24.0912 22.6178 25.1195 25.0175 24.1165 25.9001C18.0368 31.2503 23.6056 33.4365 29.9498 33.789C33.1261 33.9655 37.8402 37.9377 39.8943 40.2335C41.6512 42.1971 43.7698 37.8199 44.8387 40.789C47.0309 46.8784 54.7679 42.1481 59.2276 42.4557C62.6003 42.6883 60.7509 46.8382 65.8943 44.9001C70.3995 43.2025 74.8566 41.7064 79.3387 39.8446C82.3229 38.605 84.7408 40.1622 86.6721 38.5668C88.9706 36.6679 91.7342 37.1244 94.6721 35.789C98.8944 33.8698 105.011 33.2547 109.561 32.3446C110.528 32.1512 116.916 31.0748 117.505 31.289C121.362 32.6916 124.933 29.5796 129.228 31.0112" stroke="white" stroke-opacity="0.27" stroke-width="30" stroke-linecap="round"/>
<path d="M54.2275 17.0114C55.6715 18.5456 56.3354 20.1342 57.6164 17.4558C59.1787 14.1892 56.5811 16.8264 56.8942 19.1225C57.2525 21.7501 58.272 18.2003 58.5609 18.3447C64.744 21.4363 68.092 15.6286 73.8942 15.0114C75.012 14.8925 80.017 15.7431 80.6164 15.7892C84.3231 16.0743 88.8457 14.9388 92.4498 16.0114C97.362 17.4734 98.0223 19.4025 103.839 18.1781C110.07 16.8661 117.764 20.1557 119.228 26.0114" stroke="white" stroke-opacity="0.27" stroke-width="30" stroke-linecap="round"/>
<path d="M107.228 36.0112C104.442 40.6126 100.377 43.4139 94.8942 44.4557C92.1355 44.9798 87.2779 46.9692 84.6164 45.2335C80.2425 42.3809 78.2564 41.4903 73.2275 40.0112" stroke="white" stroke-opacity="0.27" stroke-width="30" stroke-linecap="round"/>
<path d="M42.2274 51.0112C41.228 49.1552 44.5487 50.1692 46.4497 49.789C54.3795 48.203 62.3845 45.972 70.2274 44.0112" stroke="white" stroke-opacity="0.27" stroke-width="30" stroke-linecap="round"/>
<path d="M104.227 42.0112C103.118 41.0602 105.284 42.3351 106.227 42.3446C113.815 42.4204 120.328 38.5026 127.227 36.0112" stroke="white" stroke-opacity="0.27" stroke-width="30" stroke-linecap="round"/>
<path d="M120.228 20.0112C120.39 15.2899 121.322 20.6322 122.228 17.0112" stroke="white" stroke-opacity="0.27" stroke-width="30" stroke-linecap="round"/>
<path d="M41.2275 23.0112C36.1476 26.4372 30.8097 29.2622 26.2275 33.0112" stroke="white" stroke-opacity="0.27" stroke-width="30" stroke-linecap="round"/>
<path d="M17.2275 37.0112C12.8527 40.4853 15.8717 39.9825 18.2275 43.0112" stroke="white" stroke-opacity="0.27" stroke-width="30" stroke-linecap="round"/>
</svg>
